<svg width="40" height="40" viewBox="0 0 40 40" fill="none" xmlns="http://www.w3.org/2000/svg">
<path fill-rule="evenodd" clip-rule="evenodd" d="M19.6956 0C20.0246 0 20.3393 0.134771 20.5664 0.372928L39.0589 19.7714C39.3911 20.1198 39.4835 20.6327 39.294 21.0751C39.1045 21.5176 38.6695 21.8045 38.1882 21.8045H35.3347V38.797C35.3347 39.4614 34.7961 40 34.1317 40H5.25952C4.59512 40 4.05651 39.4614 4.05651 38.797V21.8045H1.20304C0.721695 21.8045 0.286688 21.5176 0.0971842 21.0751C-0.0923193 20.6327 0.000164849 20.1198 0.332293 19.7714L18.8249 0.372928C19.0519 0.134771 19.3666 0 19.6956 0ZM19.6956 4.06015L6.46253 17.8947V19.3985C6.46253 19.3985 6.46253 19.9371 6.46253 20.6015V37.594H32.9287V20.6015C32.9287 19.9371 32.9287 19.3985 32.9287 19.3985V17.8947L19.6956 4.06015Z" fill="white"/>
<path fill-rule="evenodd" clip-rule="evenodd" d="M19.6993 18.0451C16.1281 18.0451 13.2331 20.9401 13.2331 24.5113C13.2331 28.0824 16.1281 30.9774 19.6993 30.9774C23.2704 30.9774 26.1654 28.0824 26.1654 24.5113C26.1654 20.9401 23.2704 18.0451 19.6993 18.0451ZM10.2256 24.5113C10.2256 19.2791 14.4671 15.0376 19.6993 15.0376C24.9314 15.0376 29.173 19.2791 29.173 24.5113C29.173 29.7435 24.9314 33.985 19.6993 33.985C14.4671 33.985 10.2256 29.7435 10.2256 24.5113Z" fill="white"/>
</svg>
