<svg width="50" height="50" viewBox="0 0 50 50" fill="none" xmlns="http://www.w3.org/2000/svg">
<path d="M50 25C50 38.8071 38.8071 50 25 50C11.1929 50 0 38.8071 0 25C0 11.1929 11.1929 0 25 0C38.8071 0 50 11.1929 50 25Z" fill="white" fill-opacity="0.1"/>
<path fill-rule="evenodd" clip-rule="evenodd" d="M25 47.8571C37.6237 47.8571 47.8571 37.6237 47.8571 25C47.8571 12.3763 37.6237 2.14286 25 2.14286C12.3763 2.14286 2.14286 12.3763 2.14286 25C2.14286 37.6237 12.3763 47.8571 25 47.8571ZM25 50C38.8071 50 50 38.8071 50 25C50 11.1929 38.8071 0 25 0C11.1929 0 0 11.1929 0 25C0 38.8071 11.1929 50 25 50Z" fill="url(#paint0_linear_0_566)"/>
<path d="M30.5804 21.6966H19.4197C17.9396 21.6966 16.5203 22.2728 15.4737 23.2984C14.4272 24.324 13.8393 25.715 13.8393 27.1654V28.2591C13.8393 28.9773 13.9836 29.6884 14.2641 30.3519C14.5445 31.0154 14.9556 31.6183 15.4737 32.1261C16.5203 33.1517 17.9396 33.7279 19.4197 33.7279H30.5804C31.3132 33.7279 32.0388 33.5864 32.7159 33.3116C33.3929 33.0367 34.0081 32.6339 34.5263 32.1261C35.0445 31.6183 35.4555 31.0154 35.7359 30.3519C36.0164 29.6884 36.1607 28.9773 36.1607 28.2591V27.1654C36.1607 25.715 35.5728 24.324 34.5263 23.2984C33.4798 22.2728 32.0604 21.6966 30.5804 21.6966ZM33.9286 28.2591C33.9249 29.1282 33.571 29.9607 32.9439 30.5753C32.3167 31.1899 31.4672 31.5368 30.5804 31.5404H19.4197C18.5328 31.5368 17.6833 31.1899 17.0562 30.5753C16.429 29.9607 16.0751 29.1282 16.0714 28.2591V27.1654C16.0751 26.2962 16.429 25.4637 17.0562 24.8491C17.6833 24.2346 18.5328 23.8877 19.4197 23.8841H30.5804C31.4672 23.8877 32.3167 24.2346 32.9439 24.8491C33.571 25.4637 33.9249 26.2962 33.9286 27.1654V28.2591ZM31.6964 27.7122C31.6964 28.0367 31.5983 28.3539 31.4143 28.6237C31.2303 28.8935 30.9689 29.1038 30.663 29.228C30.3571 29.3521 30.0205 29.3846 29.6957 29.3213C29.371 29.258 29.0727 29.1018 28.8386 28.8723C28.6044 28.6429 28.445 28.3506 28.3804 28.0323C28.3158 27.7141 28.3489 27.3842 28.4757 27.0844C28.6024 26.7846 28.8169 26.5284 29.0922 26.3481C29.3676 26.1678 29.6912 26.0716 30.0223 26.0716C30.4663 26.0716 30.8921 26.2445 31.2061 26.5521C31.5201 26.8598 31.6964 27.2771 31.6964 27.7122ZM21.6518 27.7122C21.6518 28.0367 21.5536 28.3539 21.3697 28.6237C21.1857 28.8935 20.9242 29.1038 20.6183 29.228C20.3124 29.3521 19.9758 29.3846 19.6511 29.3213C19.3263 29.258 19.028 29.1018 18.7939 28.8723C18.5598 28.6429 18.4003 28.3506 18.3357 28.0323C18.2712 27.7141 18.3043 27.3842 18.431 27.0844C18.5577 26.7846 18.7723 26.5284 19.0476 26.3481C19.3229 26.1678 19.6466 26.0716 19.9777 26.0716C20.4217 26.0716 20.8475 26.2445 21.1615 26.5521C21.4754 26.8598 21.6518 27.2771 21.6518 27.7122ZM36.1607 12.9466C35.1712 12.9485 34.2102 13.2714 33.4278 13.865C32.6454 14.4587 32.0856 15.2895 31.8359 16.2279H18.1641C17.8942 15.1948 17.2486 14.294 16.3487 13.6946C15.4487 13.0952 14.3564 12.8385 13.2769 12.9729C12.1975 13.1072 11.2052 13.6232 10.4867 14.424C9.7682 15.2249 9.37287 16.2553 9.37501 17.3216V28.2591C9.3787 30.8687 10.4382 33.3704 12.3211 35.2157C14.204 37.061 16.7568 38.0992 19.4197 38.1029H30.5804C33.2432 38.0992 35.796 37.061 37.6789 35.2157C39.5619 33.3704 40.6213 30.8687 40.625 28.2591V17.3216C40.6213 16.1624 40.1498 15.0517 39.3134 14.232C38.477 13.4123 37.3436 12.9502 36.1607 12.9466ZM38.3929 28.2591C38.3929 30.2897 37.5698 32.2371 36.1046 33.6729C34.6395 35.1087 32.6524 35.9154 30.5804 35.9154H19.4197C17.3476 35.9154 15.3605 35.1087 13.8954 33.6729C12.4303 32.2371 11.6072 30.2897 11.6072 28.2591V17.3216C11.6072 16.7414 11.8423 16.185 12.2609 15.7748C12.6795 15.3646 13.2473 15.1341 13.8393 15.1341C14.4313 15.1341 14.9991 15.3646 15.4177 15.7748C15.8363 16.185 16.0714 16.7414 16.0714 17.3216C16.0714 17.6117 16.189 17.8899 16.3983 18.095C16.6076 18.3001 16.8915 18.4154 17.1875 18.4154H32.8125C33.1085 18.4154 33.3924 18.3001 33.6017 18.095C33.811 17.8899 33.9286 17.6117 33.9286 17.3216C33.9286 16.7414 34.1638 16.185 34.5824 15.7748C35.001 15.3646 35.5687 15.1341 36.1607 15.1341C36.7527 15.1341 37.3205 15.3646 37.7391 15.7748C38.1577 16.185 38.3929 16.7414 38.3929 17.3216V28.2591Z" fill="white"/>
<defs>
<linearGradient id="paint0_linear_0_566" x1="25" y1="0" x2="25" y2="50" gradientUnits="userSpaceOnUse">
<stop stop-color="white"/>
<stop offset="1" stop-color="white" stop-opacity="0"/>
</linearGradient>
</defs>
</svg>
