<svg width="50" height="50" viewBox="0 0 50 50" fill="none" xmlns="http://www.w3.org/2000/svg">
<path d="M50 25C50 38.8071 38.8071 50 25 50C11.1929 50 0 38.8071 0 25C0 11.1929 11.1929 0 25 0C38.8071 0 50 11.1929 50 25Z" fill="white" fill-opacity="0.1"/>
<path fill-rule="evenodd" clip-rule="evenodd" d="M25 47.8571C37.6237 47.8571 47.8571 37.6237 47.8571 25C47.8571 12.3763 37.6237 2.14286 25 2.14286C12.3763 2.14286 2.14286 12.3763 2.14286 25C2.14286 37.6237 12.3763 47.8571 25 47.8571ZM25 50C38.8071 50 50 38.8071 50 25C50 11.1929 38.8071 0 25 0C11.1929 0 0 11.1929 0 25C0 38.8071 11.1929 50 25 50Z" fill="url(#paint0_linear_0_552)"/>
<path fill-rule="evenodd" clip-rule="evenodd" d="M26.6422 14.5497C28.1528 13.0101 30.2047 12.1426 32.3471 12.1426H37.8573C38.2518 12.1426 38.5716 12.4624 38.5716 12.8569V18.4726C38.5716 20.6436 37.7255 22.7283 36.2153 24.2675C34.7046 25.8071 32.6527 26.6746 30.5103 26.6746H25.7144V39.9997C25.7144 40.3942 25.3946 40.714 25.0001 40.714C24.6057 40.714 24.2859 40.3942 24.2859 39.9997V32.2904H19.4899C17.3475 32.2904 15.2957 31.4229 13.785 29.8832C12.2748 28.3441 11.4287 26.2594 11.4287 24.0884V18.4726C11.4287 18.0781 11.7485 17.7583 12.143 17.7583H17.6532C19.7956 17.7583 21.8474 18.6258 23.3581 20.1655C23.7026 20.5166 24.0126 20.8961 24.2859 21.2986V20.3445C24.2859 18.1736 25.1319 16.0889 26.6422 14.5497ZM26.7017 25.246L32.8569 18.9729C33.1332 18.6913 33.1289 18.2391 32.8473 17.9628C32.5658 17.6865 32.1135 17.6908 31.8372 17.9724L25.7144 24.2125V20.3445C25.7144 18.5438 26.4164 16.8195 27.6619 15.5502C28.9068 14.2814 30.5924 13.5711 32.3471 13.5711H37.143V18.4726C37.143 20.2734 36.441 21.9977 35.1956 23.267C33.9506 24.5358 32.265 25.246 30.5103 25.246H26.7017ZM23.2986 30.8618L17.1434 24.5887C16.8671 24.3071 16.8714 23.8548 17.1529 23.5785C17.4345 23.3023 17.8868 23.3065 18.163 23.5881L24.2859 29.8282V25.961C24.2859 25.9607 24.2859 25.9612 24.2859 25.961C24.2859 25.9607 24.2859 25.9598 24.2859 25.9596M23.2986 30.8618H19.4899C17.7353 30.8618 16.0497 30.1515 14.8047 28.8827C13.5593 27.6135 12.8573 25.8891 12.8573 24.0884V19.1869H17.6532C19.4079 19.1869 21.0935 19.8972 22.3384 21.166C23.5836 22.435 24.2856 24.1592 24.2859 25.9596" fill="white"/>
<defs>
<linearGradient id="paint0_linear_0_552" x1="25" y1="0" x2="25" y2="50" gradientUnits="userSpaceOnUse">
<stop stop-color="white"/>
<stop offset="1" stop-color="white" stop-opacity="0"/>
</linearGradient>
</defs>
</svg>
