<svg width="50" height="50" viewBox="0 0 50 50" fill="none" xmlns="http://www.w3.org/2000/svg">
<path d="M50 25C50 38.8071 38.8071 50 25 50C11.1929 50 0 38.8071 0 25C0 11.1929 11.1929 0 25 0C38.8071 0 50 11.1929 50 25Z" fill="white" fill-opacity="0.1"/>
<path fill-rule="evenodd" clip-rule="evenodd" d="M25 47.8571C37.6237 47.8571 47.8571 37.6237 47.8571 25C47.8571 12.3763 37.6237 2.14286 25 2.14286C12.3763 2.14286 2.14286 12.3763 2.14286 25C2.14286 37.6237 12.3763 47.8571 25 47.8571ZM25 50C38.8071 50 50 38.8071 50 25C50 11.1929 38.8071 0 25 0C11.1929 0 0 11.1929 0 25C0 38.8071 11.1929 50 25 50Z" fill="url(#paint0_linear_0_575)"/>
<path d="M15.2236 37.1427C14.9855 37.1427 14.7623 37.0521 14.554 36.8707C14.3754 36.6894 14.2861 36.4628 14.2861 36.1908C14.2861 36.1001 14.301 35.9944 14.3308 35.8735C14.3903 35.7224 14.4796 35.5562 14.5986 35.3749L22.3665 25.085L15.0897 15.3391C14.9707 15.1578 14.8814 15.0067 14.8218 14.8859C14.7921 14.765 14.7772 14.6441 14.7772 14.5232C14.7772 14.2512 14.8665 14.0246 15.0451 13.8433C15.2236 13.6619 15.4468 13.5713 15.7147 13.5713H17.9915C18.3189 13.5713 18.557 13.6619 18.7058 13.8433C18.8843 13.9944 19.0332 14.1455 19.1522 14.2966L25.0897 22.1386L31.0272 14.3419C31.1463 14.1908 31.2802 14.0246 31.429 13.8433C31.6076 13.6619 31.8605 13.5713 32.1879 13.5713H34.3754C34.6433 13.5713 34.8665 13.6619 35.0451 13.8433C35.2236 14.0246 35.3129 14.2512 35.3129 14.5232C35.3129 14.6441 35.2832 14.765 35.2236 14.8859C35.1939 15.0067 35.1195 15.1578 35.0004 15.3391L27.6343 25.1757L35.4022 35.3749C35.5213 35.5562 35.5957 35.7073 35.6254 35.8282C35.6849 35.949 35.7147 36.0699 35.7147 36.1908C35.7147 36.4628 35.6254 36.6894 35.4468 36.8707C35.2683 37.0521 35.0451 37.1427 34.7772 37.1427H32.4111C32.1135 37.1427 31.8754 37.0672 31.6968 36.9161C31.5183 36.765 31.3695 36.6139 31.2504 36.4628L24.9558 28.1674L18.6611 36.4628C18.5421 36.5837 18.3933 36.7348 18.2147 36.9161C18.0659 37.0672 17.8278 37.1427 17.5004 37.1427H15.2236Z" fill="white"/>
<defs>
<linearGradient id="paint0_linear_0_575" x1="25" y1="0" x2="25" y2="50" gradientUnits="userSpaceOnUse">
<stop stop-color="white"/>
<stop offset="1" stop-color="white" stop-opacity="0"/>
</linearGradient>
</defs>
</svg>
