<svg width="50" height="50" viewBox="0 0 50 50" fill="none" xmlns="http://www.w3.org/2000/svg">
<path d="M50 25C50 38.8071 38.8071 50 25 50C11.1929 50 0 38.8071 0 25C0 11.1929 11.1929 0 25 0C38.8071 0 50 11.1929 50 25Z" fill="white" fill-opacity="0.1"/>
<path fill-rule="evenodd" clip-rule="evenodd" d="M25 47.8571C37.6237 47.8571 47.8571 37.6237 47.8571 25C47.8571 12.3763 37.6237 2.14286 25 2.14286C12.3763 2.14286 2.14286 12.3763 2.14286 25C2.14286 37.6237 12.3763 47.8571 25 47.8571ZM25 50C38.8071 50 50 38.8071 50 25C50 11.1929 38.8071 0 25 0C11.1929 0 0 11.1929 0 25C0 38.8071 11.1929 50 25 50Z" fill="url(#paint0_linear_0_548)"/>
<path d="M29.8115 35.7141H20.3486V34.377C20.6915 34.1941 21.0458 34.0455 21.4115 33.9312C21.7772 33.7941 22.1772 33.6684 22.6115 33.5541V21.0055L20.3486 20.7312V19.3941C20.6915 19.257 21.1143 19.1198 21.6172 18.9827C22.1429 18.8455 22.6915 18.7312 23.2629 18.6398C23.8343 18.5255 24.3943 18.4341 24.9429 18.3655C25.4915 18.2741 25.9715 18.2055 26.3829 18.1598H27.5486V33.5541C28.0058 33.6684 28.4172 33.7941 28.7829 33.9312C29.1486 34.0455 29.4915 34.1941 29.8115 34.377V35.7141ZM22.0286 12.9484C22.0286 12.1484 22.3029 11.5198 22.8515 11.0627C23.4001 10.6055 24.1086 10.377 24.9772 10.377C25.8458 10.377 26.5543 10.6055 27.1029 11.0627C27.6515 11.5198 27.9258 12.1484 27.9258 12.9484C27.9258 13.7255 27.6515 14.3427 27.1029 14.7998C26.5543 15.257 25.8458 15.4855 24.9772 15.4855C24.1086 15.4855 23.4001 15.257 22.8515 14.7998C22.3029 14.3427 22.0286 13.7255 22.0286 12.9484Z" fill="white"/>
<defs>
<linearGradient id="paint0_linear_0_548" x1="25" y1="0" x2="25" y2="50" gradientUnits="userSpaceOnUse">
<stop stop-color="white"/>
<stop offset="1" stop-color="white" stop-opacity="0"/>
</linearGradient>
</defs>
</svg>
