<svg width="50" height="50" viewBox="0 0 50 50" fill="none" xmlns="http://www.w3.org/2000/svg">
<path d="M50 25C50 38.8071 38.8071 50 25 50C11.1929 50 0 38.8071 0 25C0 11.1929 11.1929 0 25 0C38.8071 0 50 11.1929 50 25Z" fill="white" fill-opacity="0.1"/>
<path fill-rule="evenodd" clip-rule="evenodd" d="M25 47.8571C37.6237 47.8571 47.8571 37.6237 47.8571 25C47.8571 12.3763 37.6237 2.14286 25 2.14286C12.3763 2.14286 2.14286 12.3763 2.14286 25C2.14286 37.6237 12.3763 47.8571 25 47.8571ZM25 50C38.8071 50 50 38.8071 50 25C50 11.1929 38.8071 0 25 0C11.1929 0 0 11.1929 0 25C0 38.8071 11.1929 50 25 50Z" fill="url(#paint0_linear_0_570)"/>
<path d="M16.6916 21.9742L22.7989 25.6154L17.2977 28.8952L10.7139 27.0837V29.4218L15.8583 30.8371L14.4723 36.1482L16.4442 37.3172L18.0826 31.0386L23.8893 27.5768V33.8074L18.9971 38.8305L20.9691 39.9996L25.1265 35.7309L29.1909 39.9042L31.1629 38.7352L26.0887 33.5251V27.5768L31.7936 30.978L33.4622 37.3722L35.4342 36.2031L34.0339 30.8371L39.2853 29.3923V27.0543L32.6532 28.879L27.1791 25.6154L33.2593 21.9904L39.2853 23.6483V21.3103L34.4978 19.9932L35.8195 14.9282L33.8476 13.7592L32.2193 19.999L26.0887 23.654V16.5994L30.6823 11.8828L28.7104 10.7139L24.9183 14.6075L21.1856 10.775L19.2137 11.9439L23.8893 16.7447V23.654L17.657 19.9383L16.0588 13.8143L14.0868 14.9832L15.3943 19.9932L10.7139 21.2808V23.6188L16.6916 21.9742Z" fill="white"/>
<defs>
<linearGradient id="paint0_linear_0_570" x1="25" y1="0" x2="25" y2="50" gradientUnits="userSpaceOnUse">
<stop stop-color="white"/>
<stop offset="1" stop-color="white" stop-opacity="0"/>
</linearGradient>
</defs>
</svg>
