<svg width="50" height="50" viewBox="0 0 50 50" fill="none" xmlns="http://www.w3.org/2000/svg">
<path d="M50 25C50 38.8071 38.8071 50 25 50C11.1929 50 0 38.8071 0 25C0 11.1929 11.1929 0 25 0C38.8071 0 50 11.1929 50 25Z" fill="white" fill-opacity="0.1"/>
<path fill-rule="evenodd" clip-rule="evenodd" d="M25 47.8571C37.6237 47.8571 47.8571 37.6237 47.8571 25C47.8571 12.3763 37.6237 2.14286 25 2.14286C12.3763 2.14286 2.14286 12.3763 2.14286 25C2.14286 37.6237 12.3763 47.8571 25 47.8571ZM25 50C38.8071 50 50 38.8071 50 25C50 11.1929 38.8071 0 25 0C11.1929 0 0 11.1929 0 25C0 38.8071 11.1929 50 25 50Z" fill="url(#paint0_linear_0_579)"/>
<path d="M26.5488 12.8226C27.0297 14.8759 27.0951 17.0047 26.7411 19.0837C26.3871 21.1627 25.621 23.1499 24.4876 24.9284C23.3543 26.7069 21.8767 28.2407 20.1418 29.4397C18.4069 30.6387 16.4497 31.4786 14.3854 31.91C15.4707 33.033 16.7706 33.9264 18.2078 34.5374C19.645 35.1483 21.1903 35.4643 22.752 35.4665C22.8968 35.4665 23.0437 35.4718 23.1906 35.4665C25.9095 35.3707 28.5089 34.3255 30.5372 32.5124C32.5656 30.6993 33.8948 28.233 34.2937 25.5418C34.6927 22.8507 34.1364 20.1048 32.7213 17.7812C31.3062 15.4576 29.1219 13.7031 26.5477 12.8226H26.5488ZM24.9982 10.29C25.0597 10.2902 25.1212 10.2959 25.1818 10.3068C28.5215 10.9012 31.5233 12.71 33.6091 15.3851C35.695 18.0601 36.7176 21.4123 36.4799 24.7961C36.2422 28.18 34.7611 31.3563 32.3217 33.7134C29.8823 36.0706 26.6571 37.4421 23.2671 37.5637C23.0951 37.57 22.923 37.5637 22.7531 37.5637C20.5511 37.5651 18.3811 37.0363 16.4266 36.0219C14.4722 35.0075 12.7907 33.5374 11.5245 31.7359C11.4219 31.5806 11.362 31.4011 11.3509 31.2153C11.3397 31.0295 11.3777 30.8441 11.4609 30.6777C11.5442 30.5112 11.6698 30.3697 11.8252 30.2672C11.9806 30.1648 12.1602 30.105 12.3459 30.094C14.4418 29.9101 16.4673 29.2467 18.2658 28.1551C20.0644 27.0635 21.5879 25.573 22.7186 23.7988C23.8492 22.0245 24.5568 20.014 24.7865 17.9227C25.0162 15.8314 24.762 13.7152 24.0435 11.7378C23.9824 11.5795 23.9599 11.4089 23.9781 11.2402C23.9963 11.0715 24.0545 10.9096 24.1479 10.768C24.2413 10.6263 24.3672 10.5091 24.5151 10.4259C24.663 10.3428 24.8286 10.2962 24.9982 10.29Z" fill="white"/>
<defs>
<linearGradient id="paint0_linear_0_579" x1="25" y1="0" x2="25" y2="50" gradientUnits="userSpaceOnUse">
<stop stop-color="white"/>
<stop offset="1" stop-color="white" stop-opacity="0"/>
</linearGradient>
</defs>
</svg>
