<svg width="50" height="50" viewBox="0 0 50 50" fill="none" xmlns="http://www.w3.org/2000/svg">
<path d="M50 25C50 38.8071 38.8071 50 25 50C11.1929 50 0 38.8071 0 25C0 11.1929 11.1929 0 25 0C38.8071 0 50 11.1929 50 25Z" fill="white" fill-opacity="0.1"/>
<path fill-rule="evenodd" clip-rule="evenodd" d="M25 47.8571C37.6237 47.8571 47.8571 37.6237 47.8571 25C47.8571 12.3763 37.6237 2.14286 25 2.14286C12.3763 2.14286 2.14286 12.3763 2.14286 25C2.14286 37.6237 12.3763 47.8571 25 47.8571ZM25 50C38.8071 50 50 38.8071 50 25C50 11.1929 38.8071 0 25 0C11.1929 0 0 11.1929 0 25C0 38.8071 11.1929 50 25 50Z" fill="url(#paint0_linear_0_562)"/>
<path d="M17.8571 12.066C17.8571 10.192 18.6097 8.39473 19.9492 7.06959C21.2888 5.74446 23.1056 5 25 5C26.8944 5 28.7112 5.74446 30.0508 7.06959C31.3903 8.39473 32.1429 10.192 32.1429 12.066V27.47C33.521 28.8614 34.4531 30.6243 34.8225 32.5377C35.1919 34.451 34.982 36.4297 34.2191 38.2255C33.4563 40.0214 32.1745 41.5544 30.5345 42.6325C28.8944 43.7106 26.9691 44.2857 25 44.2857C23.0309 44.2857 21.1056 43.7106 19.4655 42.6325C17.8255 41.5544 16.5437 40.0214 15.7809 38.2255C15.018 36.4297 14.8081 34.451 15.1775 32.5377C15.5469 30.6243 16.479 28.8614 17.8571 27.47V12.066ZM25 7.82641C23.8634 7.82641 22.7733 8.27309 21.9695 9.06817C21.1658 9.86325 20.7143 10.9416 20.7143 12.066V28.7051L20.24 29.1291C19.1616 30.0831 18.4015 31.3385 18.0602 32.7292C17.7189 34.1199 17.8125 35.5803 18.3287 36.9173C18.8448 38.2542 19.7591 39.4045 20.9507 40.2161C22.1422 41.0277 23.5548 41.4623 25.0014 41.4623C26.4481 41.4623 27.8607 41.0277 29.0522 40.2161C30.2437 39.4045 31.1581 38.2542 31.6742 36.9173C32.1903 35.5803 32.284 34.1199 31.9426 32.7292C31.6013 31.3385 30.8412 30.0831 29.7629 29.1291L29.2857 28.7023V12.066C29.2857 10.9416 28.8342 9.86325 28.0305 9.06817C27.2267 8.27309 26.1366 7.82641 25 7.82641ZM26.4286 19.1321C26.4286 18.7573 26.2781 18.3978 26.0102 18.1328C25.7422 17.8678 25.3789 17.7189 25 17.7189C24.6211 17.7189 24.2578 17.8678 23.9898 18.1328C23.7219 18.3978 23.5714 18.7573 23.5714 19.1321V30.678C22.6183 31.0113 21.8149 31.6673 21.3034 32.53C20.7918 33.3926 20.605 34.4063 20.776 35.3921C20.947 36.3778 21.4647 37.2719 22.2376 37.9166C23.0106 38.5612 23.989 38.9147 25 38.9147C26.011 38.9147 26.9894 38.5612 27.7624 37.9166C28.5353 37.2719 29.053 36.3778 29.224 35.3921C29.3949 34.4063 29.2082 33.3926 28.6966 32.53C28.1851 31.6673 27.3817 31.0113 26.4286 30.678V19.1321Z" fill="white"/>
<defs>
<linearGradient id="paint0_linear_0_562" x1="25" y1="0" x2="25" y2="50" gradientUnits="userSpaceOnUse">
<stop stop-color="white"/>
<stop offset="1" stop-color="white" stop-opacity="0"/>
</linearGradient>
</defs>
</svg>
