<svg width="50" height="50" viewBox="0 0 50 50" fill="none" xmlns="http://www.w3.org/2000/svg">
<path d="M50 25C50 38.8071 38.8071 50 25 50C11.1929 50 0 38.8071 0 25C0 11.1929 11.1929 0 25 0C38.8071 0 50 11.1929 50 25Z" fill="white" fill-opacity="0.1"/>
<path fill-rule="evenodd" clip-rule="evenodd" d="M25 47.8571C37.6237 47.8571 47.8571 37.6237 47.8571 25C47.8571 12.3763 37.6237 2.14286 25 2.14286C12.3763 2.14286 2.14286 12.3763 2.14286 25C2.14286 37.6237 12.3763 47.8571 25 47.8571ZM25 50C38.8071 50 50 38.8071 50 25C50 11.1929 38.8071 0 25 0C11.1929 0 0 11.1929 0 25C0 38.8071 11.1929 50 25 50Z" fill="url(#paint0_linear_0_556)"/>
<path fill-rule="evenodd" clip-rule="evenodd" d="M18.9173 10.7157C19.2055 10.6952 19.4776 10.8503 19.6068 11.1087L25.1954 22.2858L32.0343 15.4469C32.2094 15.2718 32.4626 15.1999 32.7035 15.2568C32.9444 15.3137 33.1387 15.4912 33.217 15.7261L40.7567 38.3451C40.8293 38.563 40.7928 38.8024 40.6585 38.9887C40.5243 39.1749 40.3087 39.2853 40.0791 39.2853H9.92035C9.69074 39.2853 9.47514 39.1749 9.34089 38.9887C9.20664 38.8024 9.17011 38.563 9.24271 38.3451L18.2903 11.2023C18.3817 10.9282 18.6292 10.7362 18.9173 10.7157ZM19.1003 13.29L10.9114 37.8567H39.0881L32.2272 17.2743L25.5048 23.9967C25.3424 24.1591 25.1119 24.2335 24.8853 24.1967C24.6587 24.1599 24.4635 24.0165 24.3608 23.8111L19.1003 13.29Z" fill="white"/>
<path fill-rule="evenodd" clip-rule="evenodd" d="M19.0361 28.7403C17.2249 28.6436 15.389 29.1341 13.5151 30.257C13.1768 30.4598 12.7381 30.3499 12.5353 30.0115C12.3325 29.6731 12.4424 29.2344 12.7808 29.0316C14.8577 27.7871 16.9726 27.1995 19.1123 27.3138C21.2492 27.428 23.3516 28.239 25.4124 29.6942L25.4131 29.6947C27.3887 31.0934 29.3231 31.7841 31.2218 31.8273C33.1193 31.8706 35.0482 31.2687 37.017 29.9682C37.3461 29.7507 37.7892 29.8413 38.0067 30.1705C38.2241 30.4996 38.1335 30.9427 37.8044 31.1602C35.6414 32.589 33.4311 33.3066 31.1893 33.2555C28.9488 33.2045 26.744 32.3873 24.5879 30.8608C22.698 29.5265 20.8498 28.8373 19.0361 28.7403Z" fill="white"/>
<defs>
<linearGradient id="paint0_linear_0_556" x1="25" y1="0" x2="25" y2="50" gradientUnits="userSpaceOnUse">
<stop stop-color="white"/>
<stop offset="1" stop-color="white" stop-opacity="0"/>
</linearGradient>
</defs>
</svg>
